<svg xmlns="http://www.w3.org/2000/svg" viewBox="0 0 64 64">
  <rect width="64" height="64" fill="#008FD4"/>
  <!-- WWTF mark: x range 27.7–140 (112.3 units), scaled to fit 3–61px (58px) -->
  <!-- scale=0.516, tx=3-27.7*0.516=-11.3, ty centres separators vertically -->
  <g transform="translate(-11.3,15.6) scale(0.516)">
    <polygon fill="#ffffff" points="27.7,23 31,23 35.7,34.3 39.9,23.4 40.6,23.4 45,34.3 49.6,23 52.7,23 45.3,40.8 44.5,40.8 40.2,29.7 35.9,40.8 35.2,40.8"/>
    <polygon fill="#ffffff" points="62.8,23 66.1,23 70.7,34.3 75,23.4 75.7,23.4 80,34.3 84.7,23 87.8,23 80.4,40.8 79.6,40.8 75.3,29.7 71,40.8 70.2,40.8"/>
    <polygon fill="#ffffff" points="99.2,26 99.2,23.1 114.5,23.1 114.5,26 108.4,26 108.4,40.7 105.2,40.7 105.2,26"/>
    <polygon fill="#ffffff" points="128.2,23.1 140,23.1 140,26 131.3,26 131.3,31.1 138.6,31.1 138.6,33.8 131.3,33.8 131.3,40.7 128.2,40.7"/>
    <rect fill="#ffffff" x="57.3" y="15.9" width="1.8" height="31.9"/>
    <rect fill="#ffffff" x="92.3" y="15.9" width="1.8" height="31.9"/>
    <rect fill="#ffffff" x="120.3" y="15.9" width="1.8" height="31.9"/>
  </g>
</svg>
